<?xml version="1.0" encoding="utf-8"?>
<!-- Generator: Adobe Illustrator 22.0.0, SVG Export Plug-In . SVG Version: 6.00 Build 0)  -->
<svg version="1.1" id="Layer_1" xmlns="http://www.w3.org/2000/svg" xmlns:xlink="http://www.w3.org/1999/xlink" x="0px" y="0px"
	 viewBox="0 0 1366 768" style="enable-background:new 0 0 1366 768;" xml:space="preserve">
<style type="text/css">
	.st0{fill:#E523CF;stroke:#E523CF;stroke-width:0.75;stroke-linejoin:bevel;stroke-miterlimit:10;}
	.st1{fill:#CCFF00;}
	.st2{fill:#F40667;}
	.st3{fill:#F40667;stroke:#F40667;stroke-width:17;stroke-linejoin:bevel;stroke-miterlimit:10;}
	.st4{fill:#F40667;stroke:#F40667;stroke-width:17;stroke-linecap:round;stroke-miterlimit:10;}
</style>
<path class="st0" d="M30.8,61.8"/>
<path class="st1" d="M1136,563.4h40.1v11.3h-23.8v9.2h20.4v10.6h-20.4v21.5H1136V563.4z"/>
<path class="st1" d="M1219.1,563.4h16.2v31.3c0,3.1-0.5,6-1.5,8.8c-1,2.8-2.5,5.2-4.6,7.2c-2.1,2.1-4.2,3.5-6.5,4.4
	c-3.2,1.2-6.9,1.8-11.4,1.8c-2.6,0-5.3-0.2-8.4-0.5c-3-0.4-5.5-1.1-7.6-2.1c-2-1.1-3.9-2.6-5.6-4.5c-1.7-2-2.8-4-3.5-6.1
	c-1-3.3-1.5-6.3-1.5-8.9v-31.3h16.2v32.1c0,2.9,0.8,5.1,2.4,6.7c1.6,1.6,3.8,2.4,6.6,2.4c2.8,0,5-0.8,6.6-2.4
	c1.6-1.6,2.4-3.8,2.4-6.8V563.4z"/>
<path class="st1" d="M1246.2,563.4h15.2l19.8,29.1v-29.1h15.3v52.5h-15.3l-19.7-28.9v28.9h-15.3V563.4z"/>
<path class="st1" d="M1307.3,563.4h16.2v19.9l17-19.9h21.6l-19.2,19.8l20,32.7h-20l-11.1-21.6l-8.4,8.8v12.8h-16.2V563.4z"/>
<g>
	<polygon class="st2" points="8.4,726.5 220.7,466.8 64.5,408.6 61.8,394.3 275,200.8 287.3,212.5 150.9,379.9 316,431.9 
		319.4,446.1 21,737.9 	"/>
	<path class="st2" d="M280.7,207.1L136.4,384.2L313.5,440L15,731.9l219.7-268.9L67.5,400.6L280.7,207.1 M269.2,194.6L56.1,388
		l5.5,28.5l145,54L1.9,721.1L26.9,744l298.4-291.9l-6.8-28.4l-153.2-48.2l128.5-157.7L269.2,194.6L269.2,194.6z"/>
</g>
<g>
	<polygon class="st2" points="419.3,570.3 415.2,311.7 264.5,357.3 257.7,341.8 420,246.1 444.9,92.8 461.8,93.6 469.4,210 
		610.7,133.4 620.2,147.4 469.8,272.7 436.2,571.1 	"/>
	<path class="st2" d="M453.3,94.1l8.5,129.6l153-82.9l-153,127.5l-34,301.8l-4.3-269.9L262,349.1l165.8-97.8L453.3,94.1 M436.5,91.4
		l-24.2,149.4l-158.9,93.7l13.6,30.9l139.9-42.4l3.9,247.4l33.9,1.6l33.2-295l147.8-123.1l-19-28L477,196.2L470.2,93L436.5,91.4
		L436.5,91.4z"/>
</g>
<g>
	<polygon class="st2" points="534.6,548 678.9,203.6 694.9,204.5 790,532.5 774.5,539.2 679.4,376.6 549.3,556.3 	"/>
	<path class="st2" d="M686.8,206.9l95.1,328L680.2,361.1L542.5,551.3L686.8,206.9 M671.1,200.3L526.8,544.7l29.4,16.5l122.5-169.1
		l88.5,151.3l31-13.3l-95.1-328L671.1,200.3L671.1,200.3z"/>
</g>
<g>
	<polygon class="st2" points="814.4,555.2 941.2,311.2 819,265.3 816.5,250.9 996.9,100 1009.5,111.1 923.2,246.6 1031.7,288.8 
		1035.3,302 828.6,564.4 	"/>
	<path class="st2" d="M1002.3,106.5l-91.8,144.3l118.1,45.9L822,559.1l131.2-252.5L822,257.4L1002.3,106.5 M991.4,93.5L811.1,244.3
		l4.9,29l113.2,42.5L806.9,551.3l28.4,18.4l206.6-262.4l-7.2-26.4L936,242.5l80.7-126.8L991.4,93.5L991.4,93.5z"/>
</g>
<g>
	<path class="st2" d="M1060.4,588.6L1180.3,102l3.2-4.8l66.2-48.8l13.3,9l-54.4,207.9l55-28.8c3.2-4.4,13.4-33,45.6-169.3l2.8-4.5
		l45.3-38.3l13.7,8.5l-111.5,456.5l-3.2,4.8l-52.3,38.3l-13.2-9.2l57.1-196.5l-63.3,34.3l-108.3,233.2L1060.4,588.6z"/>
	<path class="st2" d="M1362.8,30.8l-111.5,456.5l-52.3,38.3l62.7-216.1l-83.6,45.3l-109.4,235.7L1188.5,104l66.2-48.8l-59.2,226.5
		l73.2-38.3c3.2-2.8,9.3-7,48.8-174.2L1362.8,30.8 M1351.8,17.9l-45.3,38.3l-5.6,9.1c-14.3,60.7-25.6,105.7-33.6,133.9
		c-5.7,20-8.7,28-10,31.1l-35.6,18.6l49.5-189.3l-26.5-18l-66.2,48.8l-6.4,9.6l-119.9,486.7l31.9,11.2l107.1-230.6l42.9-23.2
		l-51.4,177l26.4,18.4l52.3-38.3l6.5-9.7l111.5-456.5L1351.8,17.9L1351.8,17.9z"/>
</g>
<path class="st3" d="M682.2,220.9"/>
<path class="st3" d="M458.1,192.9"/>
<path class="st3" d="M463,241.6"/>
<path class="st3" d="M983.1,88.6"/>
<path class="st3" d="M360,207.2"/>
<path class="st4" d="M58.3,12.3"/>
<path class="st3" d="M757.1,81.1"/>
</svg>
